<?xml version="1.0" encoding="utf-8"?>
<!-- Generator: Adobe Illustrator 16.0.0, SVG Export Plug-In . SVG Version: 6.00 Build 0)  -->
<!DOCTYPE svg PUBLIC "-//W3C//DTD SVG 1.1//EN" "http://www.w3.org/Graphics/SVG/1.1/DTD/svg11.dtd">
<svg version="1.1" id="Layer_1" xmlns="http://www.w3.org/2000/svg" xmlns:xlink="http://www.w3.org/1999/xlink" x="0px" y="0px"
	 width="856.956px" height="142px" viewBox="99.044 81 856.956 142" enable-background="new 99.044 81 856.956 142"
	 xml:space="preserve">
<g>
	<g>
		<g>
			<path fill="#FFFFFF" d="M246.385,99.775C231.882,86.58,212.247,81,188.029,81H99.044l17.544,15h71.439
				c19.994,0,35.222,5.172,46.554,15.48c11.093,10.086,16.481,23.484,16.481,40.791c0,15.6-5.728,27.476-17.515,37.851
				C222.375,199.966,208.802,204,192.059,204H116.6l-17.544,19h93.003c20.905,0,38.768-6.332,53.084-18.941
				c15.57-13.705,23.465-30.539,23.465-51.182C268.608,130.663,261.132,113.186,246.385,99.775z"/>
			<path fill="#FFFFFF" d="M216.965,178.326c7.145-6.92,10.77-16.001,10.77-26.633c0-11.232-3.871-19.4-11.505-26.453
				c-7.436-6.859-17.102-9.24-28.729-9.24h-53.614l17.544,16h36.07c7.178,0,12.685,1.443,16.831,5.271
				c3.999,3.693,5.86,8.14,5.86,14.45c0,5.861-1.726,10.79-5.431,14.376c-3.733,3.616-8.505,5.902-14.584,5.902h-38.731l-17.542,17
				h56.273C200.884,189,209.896,185.169,216.965,178.326z"/>
		</g>
		<g>
			<path fill="#FFFFFF" d="M333.94,120l-33.941,64h14.316l7.069-14h39.603l7.07,14h14.315l-33.938-64H333.94z M354.575,159h-26.767
				l13.463-25.297L354.575,159z"/>
			<path fill="#FFFFFF" d="M427.191,185c10.797,0,19.104-1.082,25.62-5.33c6.615-4.211,9.189-9.979,9.189-16.845V120h-13v40.367
				c0,4.314-1.339,7.326-5.074,9.613c-3.908,2.392-9.566,4.02-17.288,4.02h1.172c-7.722,0-13.988-1.628-17.896-4.02
				c-3.736-2.287-5.915-5.299-5.915-9.613V120h-13v42.825c0,6.866,3.411,12.634,10.028,16.845c6.52,4.248,15.664,5.33,26.46,5.33
				H427.191z"/>
			<polygon fill="#FFFFFF" points="471.001,131 498.001,131 498.001,184 512,184 512,131 542,131 542,120 471.001,120 			"/>
			<path fill="#FFFFFF" d="M614.104,126.542c-7.447-5.705-16.773-8.596-27.715-8.596c-10.883,0-20.23,2.891-27.793,8.59
				c-8.693,6.579-13.103,15.108-13.103,25.356c0,10.422,4.354,18.98,12.933,25.441c7.438,5.644,16.852,8.505,27.963,8.505
				c10.994,0,20.344-2.829,27.795-8.415c8.576-6.471,12.93-15.06,12.93-25.531C627.112,141.649,622.737,133.121,614.104,126.542z
				 M606.383,167.582c-4.943,4.061-11.672,6.119-19.994,6.119c-8.381,0-15.154-2.047-20.125-6.082
				c-4.951-4.021-7.359-9.164-7.359-15.727c0-6.334,2.465-11.425,7.535-15.559c5.08-4.146,11.795-6.248,19.949-6.248
				c7.451,0,13.758,1.848,18.744,5.492c5.766,4.219,8.567,9.556,8.567,16.314C613.7,158.402,611.309,163.533,606.383,167.582z"/>
			<path fill="#FFFFFF" d="M681.49,120H640v64h43.438c9.406,0,17.418-2.824,23.805-8.455c6.9-6.07,10.396-13.768,10.396-22.902
				c0-9.916-3.308-17.892-9.826-23.82C701.329,122.928,692.477,120,681.49,120z M684.281,173H653v-42h29.336
				c6.424,0,11.674,2.334,15.588,6.081c3.959,3.787,5.881,8.872,5.881,15.105c0,5.851-1.793,11.052-5.48,14.753
				C694.641,170.639,690.049,173,684.281,173z"/>
			<polygon fill="#FFFFFF" points="744,156 789,156 789,145 744,145 744,131 796,131 796,120 730,120 730,184 796,184 796,173 
				744,173 			"/>
			<path fill="#FFFFFF" d="M852.973,120h-14.49l-33.94,64h14.312l7.072-14h39.604l7.068,14h14.32l-33.547-63.332L852.973,120z
				 M859.114,159h-26.76l13.461-25.297L859.114,159z"/>
			<polygon fill="#FFFFFF" points="909,172 909,120 895,120 895,184 956,184 956,172 			"/>
		</g>
	</g>
</g>
</svg>
